PathFileType	4	(X/Y/Z)	s04c0101.trc
DataRate	CameraRate	NumFrames	NumMarkers	Units	OrigDataRate	OrigDataStartFrame	OrigNumFrames
200	200	6	51	mm	200	750	2000
Frame#	Time	racr			lacr			c7			jug			rlel			rdr			llel			ldr			s2			lic			ric			lasi			rasi			rpsi			lpsi			rgt			lgt			rth1			rth2			rth3			rth4			rlfc			rmfc			rsh1			rsh2			rsh3			rsh4			rlmal			rmmal			rcal			rtoe			rmt5			lth1			lth2			lth4			lth3			llfc			lmfc			lsh1			lsh2			lsh3			lsh4			llmal			lmmal			lcal			ltoe			lmt1			lmt5			SBIKE			LBIKE			RBIKE			
		X1	Y1	Z1	X2	Y2	Z2	X3	Y3	Z3	X4	Y4	Z4	X5	Y5	Z5	X6	Y6	Z6	X7	Y7	Z7	X8	Y8	Z8	X9	Y9	Z9	X10	Y10	Z10	X11	Y11	Z11	X12	Y12	Z12	X13	Y13	Z13	X14	Y14	Z14	X15	Y15	Z15	X16	Y16	Z16	X17	Y17	Z17	X18	Y18	Z18	X19	Y19	Z19	X20	Y20	Z20	X21	Y21	Z21	X22	Y22	Z22	X23	Y23	Z23	X24	Y24	Z24	X25	Y25	Z25	X26	Y26	Z26	X27	Y27	Z27	X28	Y28	Z28	X29	Y29	Z29	X30	Y30	Z30	X31	Y31	Z31	X32	Y32	Z32	X33	Y33	Z33	X34	Y34	Z34	X35	Y35	Z35	X36	Y36	Z36	X37	Y37	Z37	X38	Y38	Z38	X39	Y39	Z39	X40	Y40	Z40	X41	Y41	Z41	X42	Y42	Z42	X43	Y43	Z43	X44	Y44	Z44	X45	Y45	Z45	X46	Y46	Z46	X47	Y47	Z47	X48	Y48	Z48	X49	Y49	Z49	X50	Y50	Z50	X51	Y51	Z51	
750	3.7500	485.203266	1388.647248	-149.419118	472.450155	1389.913409	-423.912070	454.582240	1452.777539	-287.765107	428.902493	1300.932437	-293.610023	464.959093	1094.039454	-3.586193	679.997777	916.885663	-108.545053	485.724496	1124.062385	-559.339849	685.624641	909.403259	-486.464537	-79.077918	1170.057432	-281.758843	71.817509	1203.025999	-443.389679	73.881276	1191.890440	-120.041991	112.597710	1157.052775	-396.641923	113.216760	1159.762716	-119.908908	-55.608515	1215.160270	-237.592505	-60.741725	1219.272431	-311.811045	36.206300	1122.364104	-107.390760	45.500472	1104.418240	-469.700058	144.339138	998.559839	-95.009600	214.453664	944.733842	-105.158286	249.882913	867.726901	-111.304732	240.250178	967.561299	-119.668886	330.125918	744.202075	-135.677106	304.721560	717.537856	-245.695732	271.846207	620.394618	-98.751598	304.266060	530.598514	-114.963019	264.038266	454.668480	-117.947065	335.407056	528.034868	-139.838393	247.192576	301.421425	-117.182535	264.399698	310.245749	-203.154828	179.668133	268.303520	-148.866998	478.656292	252.193550	-168.793968	418.118827	227.170131	-106.669561	118.211012	1042.503715	-480.290195	201.518105	1019.204085	-484.001218	219.813056	1048.265227	-471.806523	263.925016	956.272688	-493.442548	373.034870	850.089390	-474.356758	398.154230	821.948733	-365.462025	307.416776	754.099889	-494.988050	259.316026	687.538821	-465.642631	179.963569	647.186261	-461.716347	279.356915	672.822796	-435.820658	68.537024	555.394896	-450.221482	66.215369	559.309692	-363.224262	-7.399218	588.000196	-407.607515	213.077660	379.510817	-413.021279	145.523785	410.369959	-363.827152	135.626590	398.534327	-473.396978	-186.924858	937.417238	-284.676155	-18.190977	79.269736	-484.613957	-18.169056	79.112805	-83.814210	
751	3.7550	487.022856	1389.761728	-150.408345	472.352625	1392.287429	-424.582781	455.327419	1454.428645	-289.007675	429.475632	1302.400469	-294.723408	469.609045	1096.357606	-2.278687	681.640090	916.195984	-108.149495	487.127072	1125.955453	-558.098417	686.035840	909.898046	-485.736963	-78.349922	1172.439629	-279.901809	71.036839	1206.000137	-442.101792	75.812228	1192.700130	-119.163270	111.907315	1159.368806	-396.117076	115.004284	1160.313754	-119.536483	-54.228603	1217.085529	-235.592598	-59.822571	1221.942786	-309.658644	37.305162	1122.881676	-106.747957	45.708332	1109.774809	-469.754250	142.854922	996.999107	-93.351612	211.087089	940.743942	-103.887555	244.255966	862.690798	-110.020401	237.531613	962.890214	-118.146872	321.534438	737.178270	-134.082551	295.650144	710.865689	-243.728580	263.661735	614.165110	-97.185236	297.362549	523.772421	-113.761127	257.469169	447.510079	-116.527885	328.165233	521.488840	-138.402818	241.773263	294.000913	-116.007670	258.902283	303.310828	-201.959878	174.141145	261.831206	-147.688652	473.073755	242.052683	-168.708813	412.367414	217.677084	-106.426444	118.894619	1048.519394	-480.394925	202.511958	1026.585276	-484.547425	220.423952	1055.818031	-472.263417	265.901773	964.620922	-494.292164	377.604256	860.064950	-475.885413	403.711057	831.667845	-367.886102	312.395994	763.973799	-496.278589	264.553456	697.196682	-466.646557	185.359527	656.495983	-462.357412	284.693528	682.392981	-436.890254	74.460792	564.340896	-450.605365	71.827216	568.396646	-363.171438	-1.696657	596.547677	-407.585207	218.980898	388.368522	-411.532412	150.472981	419.130889	-363.079295	142.241922	407.828056	-473.390380	-186.761274	937.560896	-284.650372	-18.146829	79.399941	-484.566206	-18.134389	79.148065	-83.781028	
752	3.7600	488.725582	1391.042382	-151.340512	472.326249	1394.601335	-425.248593	455.939628	1455.999192	-290.186311	429.986777	1303.529876	-295.673843	474.428505	1098.753512	-1.189073	683.440527	915.375956	-107.720655	488.761731	1127.824376	-556.855155	686.506075	910.514193	-484.994220	-77.487955	1174.884538	-276.606455	70.327021	1209.083832	-441.026908	77.646741	1193.543210	-118.415623	111.345907	1161.807601	-395.866895	116.662231	1160.911330	-120.303554	-55.741200	1220.039816	-231.474289	-58.772632	1224.506067	-307.643520	38.422871	1123.442719	-106.149341	45.755706	1115.158946	-469.800959	140.852434	995.302444	-92.201475	207.391597	937.119074	-102.486934	238.236705	858.039725	-108.589671	234.580380	958.528938	-116.634443	312.552720	730.649256	-132.321885	286.229272	704.583120	-241.828542	255.421207	608.292095	-95.633515	289.866722	517.362048	-112.250478	250.490215	440.763823	-115.099236	320.612767	515.475542	-136.893615	235.616325	286.925580	-115.089210	253.225577	296.467547	-201.034823	168.036139	255.849507	-146.781019	466.761262	232.417058	-168.696755	405.933990	208.747154	-106.293788	119.399843	1054.440701	-480.708906	203.351806	1033.945561	-485.177526	220.826244	1063.386595	-472.692231	267.751883	973.051379	-495.381279	381.589872	870.223564	-477.476771	408.809664	842.144660	-368.700956	317.431649	773.857049	-497.460257	270.044780	706.749289	-467.611975	191.501554	665.275813	-461.833132	290.405973	692.186467	-437.957276	80.794982	572.909406	-450.566982	77.578046	576.985446	-363.108482	4.607814	604.703538	-407.505356	227.632308	398.168310	-412.340103	157.750173	427.804098	-362.885191	149.419947	416.720861	-473.292011	-186.490725	937.762366	-284.256737	-18.105930	79.557294	-484.526818	-18.115962	79.199541	-83.724346	
753	3.7650	490.394906	1392.361411	-152.215032	472.378336	1396.786875	-425.738422	456.544212	1457.394013	-291.333690	430.394942	1305.207614	-296.670259	479.262169	1101.111162	-0.338518	685.046686	914.630639	-107.952973	490.346347	1129.647467	-555.815322	687.022617	911.313085	-484.450378	-76.784040	1177.105683	-274.145333	69.473362	1212.040555	-439.817538	79.489777	1194.512542	-117.683822	110.574382	1164.070991	-395.498233	118.451534	1161.706529	-119.086936	-51.727288	1220.676240	-231.623050	-58.412389	1226.712946	-305.353408	39.419149	1124.010915	-105.608714	45.744473	1120.536892	-469.826936	138.423943	993.779477	-91.495995	203.445632	933.586180	-101.281587	232.019538	853.878800	-106.907015	231.353564	954.390124	-115.063848	303.020667	724.748491	-130.030093	276.566212	698.613078	-239.813279	247.177913	602.791272	-94.104408	281.880251	511.545722	-110.423279	243.048704	434.555979	-113.895614	312.544970	509.829977	-135.608940	228.810125	280.301403	-114.615829	246.775948	290.009383	-200.351057	161.418084	250.458199	-146.068310	459.953463	223.207269	-168.668107	398.868122	200.328958	-106.138531	119.733621	1060.227936	-481.206947	204.047781	1041.269445	-485.972577	221.038363	1070.933761	-473.078400	269.495758	981.646736	-496.571264	385.709245	880.411322	-479.351350	414.223681	852.222297	-369.235549	322.456377	783.871738	-498.635138	275.776125	716.451373	-468.604390	197.512363	674.382070	-462.359016	296.343877	701.953561	-439.134854	87.582952	581.102947	-450.336033	85.292402	585.012270	-363.061020	11.108095	612.374193	-407.093015	235.272126	407.059516	-412.505310	165.396883	435.956703	-362.879369	157.337034	425.438077	-473.448899	-186.335474	937.912334	-284.029892	-18.062578	79.719568	-484.482315	-18.101827	79.227965	-83.697999	
754	3.7700	491.967862	1393.678530	-153.149735	472.519118	1398.903261	-426.087801	457.045782	1458.773449	-292.245724	430.838922	1306.531507	-297.627732	483.991294	1103.436289	0.181928	686.772647	914.077968	-108.713883	491.303675	1131.194674	-555.138254	687.528822	912.137052	-484.079454	-76.090193	1178.793629	-273.079330	68.615234	1214.888378	-438.754077	81.177402	1195.429752	-117.042415	109.835559	1166.282005	-395.275113	120.046961	1162.456413	-118.986826	-50.659636	1222.387393	-229.658965	-57.961901	1228.885083	-303.114093	40.315481	1124.535945	-105.182510	45.597778	1125.701932	-469.781509	136.006356	992.504129	-90.215275	199.461087	930.616173	-99.703136	225.403476	850.189632	-105.245855	227.812461	950.683977	-112.801002	293.803966	719.233200	-128.365252	266.695262	693.217664	-237.731414	238.985145	597.678343	-92.605890	273.634947	506.119818	-109.073322	235.045620	428.971185	-112.739324	304.399335	504.672305	-134.518477	221.352742	274.489999	-114.206011	239.715760	284.235793	-199.739461	154.298034	245.469859	-145.660389	452.559864	214.661986	-168.449184	391.171622	192.460006	-105.986315	119.950014	1065.989487	-481.808374	204.551067	1048.663168	-486.639640	221.011169	1078.362553	-473.262662	271.093512	990.267257	-497.963847	389.603480	890.857681	-481.208127	418.896101	863.543969	-372.681924	327.500158	794.006207	-499.848637	281.557550	726.073111	-469.580370	203.554549	683.586825	-463.062603	302.522159	711.762970	-440.288470	94.851329	588.892284	-450.021221	92.473096	592.499135	-362.812736	18.524907	619.679903	-406.505191	243.446513	414.701944	-412.131417	173.722783	444.020047	-363.176913	165.697045	433.538315	-473.300277	-186.233623	938.064668	-283.708936	-18.066028	79.873845	-484.447533	-18.068362	79.243111	-83.665573	
755	3.7750	493.428371	1395.149888	-154.061572	472.831832	1400.725680	-426.348277	457.440508	1460.124460	-292.984323	432.290762	1307.693463	-298.237141	488.514149	1105.723948	0.485479	688.196404	913.653260	-108.820003	491.628981	1132.448122	-554.846106	687.784436	913.048647	-483.483334	-75.509132	1180.486308	-271.707258	67.871222	1217.704371	-437.878684	82.745657	1196.479868	-116.493833	109.198871	1168.491990	-395.218941	121.464454	1163.277681	-118.943074	-50.023158	1224.035656	-227.696664	-57.510216	1230.994113	-301.082900	41.191356	1125.398074	-104.416290	45.226299	1130.675816	-469.581670	133.579628	991.673954	-88.822632	195.353795	928.181867	-97.835126	219.046875	846.928203	-103.221903	224.211794	947.475046	-110.826267	284.461929	714.353081	-126.638603	256.957785	688.487420	-235.612629	230.896179	592.969069	-91.145941	264.854206	501.170556	-107.771722	226.615560	423.921252	-111.761222	295.385437	499.939950	-133.192893	213.629761	269.151937	-113.926518	232.512053	278.973255	-199.274677	146.866520	241.093508	-145.383563	444.694115	206.696660	-168.178033	383.032104	185.139346	-105.816168	120.056773	1071.651966	-482.288340	204.849335	1056.045001	-487.618400	220.840777	1085.739223	-473.401431	272.551483	998.932450	-499.275243	393.703739	901.310423	-482.264970	425.130256	874.858323	-373.328046	332.384479	804.101876	-500.829738	287.538585	735.749235	-470.574338	209.971419	692.349115	-463.527600	308.838988	721.476371	-441.446641	102.490950	596.290331	-449.524683	100.442297	599.436337	-362.413543	26.094409	626.129480	-405.667639	252.462827	422.456457	-412.620933	182.396215	451.289330	-363.308543	174.773080	441.363107	-473.611092	-186.175456	938.170976	-283.429215	-18.039892	80.022795	-484.407790	-18.044092	79.276185	-83.615696	
